<svg width="36" height="36" viewBox="0 0 36 36" fill="none" xmlns="http://www.w3.org/2000/svg">
<g clip-path="url(#clip0_6250_40273)">
<path d="M32.6249 0H3.37499C1.51104 0 0 1.51104 0 3.375V32.625C0 34.489 1.51104 36 3.37499 36H32.6249C34.4889 36 35.9999 34.489 35.9999 32.625V3.375C35.9999 1.51104 34.4889 0 32.6249 0Z" fill="#1F6CFA"/>
<path d="M19.125 15.1875C19.125 16.1194 19.8805 16.875 20.8125 16.875H31.4999C32.4319 16.875 33.1874 17.6306 33.1874 18.5625V31.5C33.1874 32.4319 32.4319 33.1875 31.4999 33.1875H18.5625C17.6305 33.1875 16.875 32.4319 16.875 31.5V20.8125C16.875 19.8806 16.1194 19.125 15.1875 19.125H4.5C3.56802 19.125 2.8125 18.3694 2.8125 17.4375V4.5C2.8125 3.56802 3.56802 2.8125 4.5 2.8125H17.4375C18.3694 2.8125 19.125 3.56802 19.125 4.5V15.1875Z" fill="white"/>
<path d="M11.0238 5.48438C12.5034 5.48438 13.8946 6.06053 14.9408 7.10678C15.9871 8.15304 16.5633 9.54416 16.5633 11.0238C16.5633 12.5034 15.9872 13.8946 14.941 14.9408C13.8946 15.9871 12.5035 16.5634 11.0238 16.5634C9.54415 16.5634 8.15305 15.9871 7.10678 14.9408C6.06057 13.8946 5.48438 12.5035 5.48438 11.0238C5.48439 9.54416 6.06057 8.15304 7.10678 7.10678C8.15304 6.06053 9.54417 5.48439 11.0238 5.48438ZM11.0238 5.87507C8.18482 5.8751 5.8751 8.18485 5.87507 11.0238C5.87507 13.8628 8.18481 16.1726 11.0238 16.1726C13.8628 16.1726 16.1726 13.8628 16.1726 11.0238C16.1726 8.18484 13.8628 5.87507 11.0238 5.87507ZM12.3913 15.4541C11.9592 15.5874 11.5 15.6592 11.0242 15.6592C10.5254 15.6592 10.0451 15.58 9.59476 15.4342L11.0355 11.6216L12.3913 15.4541ZM8.85086 15.1183C7.38624 14.3394 6.38882 12.7979 6.38882 11.0234C6.38883 10.3781 6.52095 9.76368 6.75919 9.20544L8.85086 15.1183ZM15.0581 8.74004C15.4406 9.41418 15.6593 10.1935 15.6593 11.024C15.6593 12.7962 14.6645 14.336 13.2029 15.1158L14.7978 10.6478C14.8572 10.5025 14.9095 10.3545 14.9509 10.2099L15.021 10.0096H15.0027C15.1044 9.56917 15.1243 9.13043 15.0581 8.74004ZM11.0237 6.38924C12.2552 6.38925 13.3744 6.86978 14.2045 7.65335C14.1793 7.651 14.1536 7.64951 14.1272 7.64951C13.6373 7.64951 13.24 8.04675 13.24 8.53665C13.2401 9.02659 14.6711 9.71038 13.8846 11.9055L13.2851 13.6189L11.6172 8.90387H12.2865V8.45467H9.42804V8.90387H10.0735L10.7975 10.9505L9.86365 13.6189L8.1958 8.90387H8.80746V8.45467H7.16582C7.99682 7.20955 9.41436 6.38924 11.0237 6.38924Z" fill="#00150D"/>
<mask id="mask0_6250_40273" style="mask-type:luminance" maskUnits="userSpaceOnUse" x="19" y="20" width="12" height="10">
<path d="M30.5907 20.1094H19.4062V29.8221H30.5907V20.1094Z" fill="white"/>
</mask>
<g mask="url(#mask0_6250_40273)">
<path d="M20.2517 28.4339L20.745 29.2619C20.8475 29.4362 20.9947 29.5732 21.1677 29.6729L22.9293 26.7092H19.4062C19.4062 26.9022 19.4574 27.0952 19.56 27.2696L20.2517 28.4339Z" fill="#0066DA"/>
<path d="M24.9985 23.2227L23.2369 20.259C23.0639 20.3587 22.9165 20.4957 22.814 20.6701L19.56 26.149C19.4593 26.3195 19.4062 26.5128 19.4062 26.7094H22.9293L24.9985 23.2227Z" fill="#00AC47"/>
<path d="M28.8293 29.6725C29.0021 29.573 29.1495 29.436 29.252 29.2616L29.457 28.9192L30.437 27.2692C30.5395 27.095 30.5907 26.9019 30.5907 26.709H27.0674L27.8171 28.141L28.8293 29.6725Z" fill="#EA4335"/>
<path d="M24.9989 23.2228L26.7605 20.2591C26.5875 20.1595 26.389 20.1096 26.184 20.1096H23.8139C23.6088 20.1096 23.4103 20.1657 23.2373 20.2591L24.9989 23.2228Z" fill="#00832D"/>
<path d="M27.0677 26.709H22.9296L21.168 29.6725C21.3409 29.7722 21.5395 29.822 21.7444 29.822H28.2528C28.4577 29.822 28.6562 29.766 28.8292 29.6725L27.0677 26.709Z" fill="#2684FC"/>
<path d="M28.8095 23.4095L27.1824 20.6699C27.0799 20.4957 26.9326 20.3587 26.7597 20.259L24.998 23.2227L27.0671 26.7094H30.5839C30.5839 26.5163 30.5326 26.3233 30.4302 26.149L28.8095 23.4095Z" fill="#FFBA00"/>
</g>
<path d="M29.8828 13.5C29.8828 13.733 30.0717 13.9219 30.3047 13.9219C30.5377 13.9219 30.7265 13.733 30.7265 13.5H30.3047H29.8828ZM21.9205 5.60793C21.7557 5.77268 21.7557 6.0398 21.9205 6.20454L24.6053 8.88934C24.77 9.05408 25.0371 9.05408 25.2018 8.88934C25.3666 8.72458 25.3666 8.45747 25.2018 8.29271L22.8154 5.90623L25.2018 3.51974C25.3666 3.35499 25.3666 3.08787 25.2018 2.92313C25.0371 2.75837 24.77 2.75837 24.6053 2.92313L21.9205 5.60793ZM30.3047 13.5H30.7265C30.7265 11.6399 30.4255 9.62201 29.1743 8.06749C27.9084 6.49469 25.7444 5.48436 22.2187 5.48436V5.90623V6.32811C25.5838 6.32811 27.4626 7.28651 28.517 8.59653C29.5862 9.92483 29.8828 11.7039 29.8828 13.5H30.3047Z" fill="white"/>
<path d="M6.04687 22.5C6.04687 22.267 5.858 22.0781 5.625 22.0781C5.39201 22.0781 5.20312 22.267 5.20312 22.5H5.625H6.04687ZM14.0092 30.392C14.174 30.2273 14.174 29.9602 14.0092 29.7955L11.3244 27.1107C11.1597 26.9459 10.8926 26.9459 10.7278 27.1107C10.5631 27.2753 10.5631 27.5425 10.7278 27.7072L13.1143 30.0938L10.7278 32.4803C10.5631 32.645 10.5631 32.9122 10.7278 33.0768C10.8926 33.2416 11.1597 33.2416 11.3244 33.0768L14.0092 30.392ZM5.625 22.5H5.20312C5.20312 24.36 5.50415 26.378 6.75534 27.9325C8.02124 29.5052 10.1854 30.5156 13.7109 30.5156V30.0938V29.6719C10.3458 29.6719 8.46702 28.7135 7.41262 27.4035C6.34351 26.0751 6.04687 24.2962 6.04687 22.5H5.625Z" fill="white"/>
</g>
<defs>
<clipPath id="clip0_6250_40273">
<rect width="35.9999" height="36" fill="white"/>
</clipPath>
</defs>
</svg>
