<svg
width="40"
height="40"
viewBox="0 0 40 40"
fill="none"
xmlns="http://www.w3.org/2000/svg"
>
<g clip-path="url(#clip0_2805_2543)">
<path
d="M36 0H4C1.79086 0 0 1.79086 0 4V36C0 38.2091 1.79086 40 4 40H36C38.2091 40 40 38.2091 40 36V4C40 1.79086 38.2091 0 36 0Z"
fill="#089DFF"
/>
<path
d="M5.4248 14.2701C5.4248 11.1227 7.97626 8.57129 11.1236 8.57129H33.6981C33.6981 11.7187 31.1467 14.2701 27.9993 14.2701H5.4248Z"
fill="white"
/>
<path
d="M5.4248 23.1353C5.4248 19.988 7.97626 17.4365 11.1236 17.4365H33.6981C33.6981 20.5839 31.1467 23.1353 27.9993 23.1353H5.4248Z"
fill="white"
/>
<path
d="M9.82324 31.9996C9.82324 28.8522 12.3747 26.3008 15.5221 26.3008H28.6721C28.6721 29.4481 26.1206 31.9996 22.9733 31.9996H9.82324Z"
fill="white"
/>
</g>
<defs>
<clipPath id="clip0_2805_2543">
<rect width="40" height="40" fill="white" />
</clipPath>
</defs>
</svg>