<svg
width="40"
height="40"
viewBox="0 0 40 40"
fill="none"
xmlns="http://www.w3.org/2000/svg"
>
<g clip-path="url(#clip0_2805_2539)">
<path
d="M19.2646 25.6406H28.6664V30.5979H19.2646V25.6406Z"
fill="#F15A24"
/>
<path
d="M26.7008 9.74369H13.3675C13.0877 9.74143 12.8102 9.79459 12.5511 9.9001C12.292 10.0056 12.0563 10.1614 11.8576 10.3584C11.659 10.5555 11.5013 10.7899 11.3937 11.0482C11.2861 11.3065 11.2307 11.5835 11.2308 11.8633V14.701H28.6667V9.74369H26.7008ZM26.5299 17.6069H11.2479V30.5984H16.2051V22.5642H26.5641C27.0051 22.5627 27.4351 22.4258 27.7958 22.1721C28.1565 21.9183 28.4307 21.56 28.5812 21.1454C28.6519 20.954 28.6867 20.7511 28.6837 20.5471V17.6069H26.5299ZM20 40.0001C16.0459 39.998 12.1812 38.8238 8.89422 36.6261C5.60721 34.4283 3.04542 31.3055 1.53256 27.6523C0.0196912 23.9991 -0.376357 19.9795 0.394457 16.1013C1.16527 12.223 3.06836 8.66035 5.86324 5.86335C7.94975 3.77377 10.4731 2.17216 13.252 1.17352C16.031 0.174882 18.9966 -0.195999 21.9359 0.0875111C24.8752 0.371021 27.7153 1.30189 30.2521 2.81326C32.789 4.32463 34.9597 6.37901 36.6083 8.82886C38.257 11.2787 39.3427 14.0632 39.7875 16.9825C40.2323 19.9017 40.0252 22.8833 39.181 25.713C38.3367 28.5426 36.8764 31.1503 34.9048 33.3486C32.9332 35.5469 30.4992 37.2814 27.7778 38.4274C25.3175 39.4699 22.672 40.0048 20 40.0001ZM20 2.64967C16.567 2.64773 13.2105 3.66426 10.3555 5.57062C7.50041 7.47698 5.27505 10.1875 3.96103 13.359C2.64701 16.5306 2.3034 20.0207 2.97368 23.3877C3.64396 26.7546 5.29801 29.8471 7.72648 32.2736C10.9816 35.5287 15.3965 37.3575 20 37.3575C24.6034 37.3575 29.0184 35.5287 32.2735 32.2736C35.5286 29.0185 37.3573 24.6036 37.3573 20.0001C37.3573 15.3966 35.5286 10.9817 32.2735 7.72659C30.6639 6.11352 28.7504 4.83573 26.6436 3.96721C24.5368 3.09868 22.2787 2.65667 20 2.66676V2.64967Z"
fill="#3F4B5B"
/>
</g>
<defs>
<clipPath id="clip0_2805_2539">
<rect width="40" height="40" fill="white" />
</clipPath>
</defs>
</svg>