<svg
width="100"
height="100"
viewBox="0 0 100 100"
fill="none"
xmlns="http://www.w3.org/2000/svg"
>
<path
d="M43.4823 6.3059C47.1167 2.78996 52.8846 2.78996 56.519 6.3059L59.0675 8.77137C61.146 10.7819 64.0358 11.7209 66.8991 11.3159L70.41 10.8193C75.4167 10.1111 80.0831 13.5014 80.9569 18.4822L81.5694 21.9747C82.069 24.8229 83.8554 27.2812 86.4097 28.6365L89.5421 30.2984C94.0089 32.6685 95.7913 38.1541 93.5706 42.6973L92.0132 45.8828C90.7432 48.4809 90.7432 51.5191 92.0132 54.1172L93.5706 57.3027C95.7913 61.8457 94.0089 67.3316 89.5421 69.7016L86.4097 71.3637C83.8554 72.7188 82.069 75.177 81.5694 78.0254L80.9569 81.518C80.0831 86.4984 75.4167 89.8891 70.41 89.1809L66.8991 88.684C64.0358 88.2789 61.146 89.218 59.0675 91.2285L56.519 93.6941C52.8846 97.2102 47.1167 97.2102 43.4823 93.6941L40.9339 91.2285C38.8554 89.218 35.9655 88.2789 33.1024 88.684L29.5914 89.1809C24.5845 89.8891 19.9181 86.4984 19.0444 81.518L18.4318 78.0254C17.9322 75.177 16.1461 72.7188 13.5917 71.3637L10.4594 69.7016C5.99242 67.3316 4.21004 61.8457 6.43082 57.3027L7.98805 54.1172C9.25801 51.5191 9.25801 48.4809 7.98805 45.8828L6.43082 42.6973C4.21004 38.1541 5.99242 32.6685 10.4594 30.2984L13.5917 28.6365C16.1461 27.2812 17.9322 24.8229 18.4318 21.9747L19.0444 18.4822C19.9181 13.5014 24.5845 10.1111 29.5914 10.8193L33.1024 11.3159C35.9655 11.7209 38.8554 10.7819 40.9339 8.77137L43.4823 6.3059Z"
fill="#0061FE"
/>
<path
d="M20.9625 44.8385C20.8951 45.2073 20.7595 45.5295 20.5557 45.8045C20.3529 46.0745 20.0839 46.2717 19.7488 46.3959C19.4086 46.519 19.0003 46.537 18.5238 46.4499L15.127 45.8291L15.2449 45.1838L18.6495 45.8057C18.9979 45.8694 19.2925 45.8651 19.5334 45.7924C19.7753 45.7151 19.9661 45.5831 20.1061 45.3967C20.246 45.2108 20.3403 44.9842 20.3889 44.7178C20.4386 44.4463 20.4304 44.2014 20.3644 43.9827C20.2984 43.7643 20.1656 43.5784 19.9659 43.4256C19.7662 43.2725 19.4921 43.1643 19.1437 43.1006L15.7391 42.4784L15.8571 41.8331L19.254 42.4538C19.7305 42.5405 20.106 42.7018 20.3807 42.9374C20.6502 43.1721 20.8316 43.4538 20.925 43.7834C21.0184 44.1127 21.0309 44.4647 20.9625 44.8385ZM21.3741 42.2147L16.1949 40.4588L16.7668 38.772C16.9056 38.3625 17.0884 38.0506 17.3151 37.8359C17.5386 37.6147 17.7847 37.4809 18.0534 37.4345C18.3238 37.3833 18.6045 37.4069 18.8955 37.5056C19.1766 37.6009 19.4114 37.752 19.5997 37.9588C19.7848 38.159 19.9021 38.4133 19.9516 38.7215C20.0011 39.0298 19.9556 39.3913 19.8151 39.8053L19.4539 40.8709L21.5848 41.5932L21.3741 42.2147ZM18.9286 40.6928L19.2873 39.6346C19.4278 39.2206 19.4368 38.8935 19.3145 38.6541C19.1922 38.4146 18.9806 38.2439 18.6798 38.1419C18.3591 38.0332 18.0824 38.0383 17.8496 38.1574C17.6118 38.2748 17.4227 38.5406 17.2822 38.955L16.9235 40.0131L18.9286 40.6928ZM23.8514 36.4353C23.6127 36.8864 23.2995 37.2275 22.9121 37.4585C22.5201 37.6871 22.0877 37.797 21.6149 37.7884C21.1421 37.7799 20.6572 37.644 20.16 37.3808C19.6675 37.1202 19.2824 36.7956 19.0048 36.407C18.7296 36.0139 18.5788 35.5864 18.5522 35.1245C18.528 34.6579 18.6427 34.1853 18.896 33.7065C19.1835 33.1633 19.5547 32.7793 20.0095 32.5545C20.4598 32.3273 20.9442 32.2861 21.4627 32.4309L21.1082 33.1007C20.7841 33.0116 20.4736 33.0417 20.1766 33.191C19.8795 33.3402 19.6299 33.6059 19.4277 33.9879C19.2401 34.3424 19.1562 34.6958 19.176 35.048C19.1937 35.3932 19.312 35.7152 19.5311 36.0138C19.7502 36.3124 20.0646 36.5702 20.4743 36.787C20.884 37.0038 21.2762 37.1201 21.651 37.1358C22.0211 37.149 22.3514 37.0704 22.642 36.9C22.9349 36.7251 23.1691 36.4719 23.3445 36.1405C23.6174 35.6249 23.6713 35.1555 23.5064 34.7323C23.3414 34.3092 23.0086 33.9415 22.5079 33.6293L21.7697 35.0242L21.314 34.7829L22.3665 32.7943L24.949 34.1611L24.6676 34.6928L23.8479 34.3208C23.9757 34.5358 24.0662 34.7546 24.1193 34.9772C24.1702 35.1927 24.1766 35.42 24.1385 35.6591C24.0957 35.8958 24 36.1545 23.8514 36.4353ZM25.1957 33.7464L20.8246 30.46L21.8856 29.0488C22.1423 28.7074 22.4103 28.4723 22.6896 28.3434C22.9647 28.2115 23.2372 28.1654 23.507 28.2054C23.7767 28.2452 24.0323 28.356 24.2737 28.5375C24.5069 28.7128 24.6805 28.9281 24.7948 29.1834C24.9123 29.4346 24.9463 29.7143 24.897 30.0226C24.8477 30.3309 24.6931 30.6578 24.4333 31.0033L23.7854 31.865L25.5901 33.2219L25.1957 33.7464ZM26.9328 31.436L24.2553 30.9281L24.6966 30.3411L27.3976 30.8178L26.9328 31.436ZM23.3733 31.5552L24.0118 30.7059C24.2622 30.3729 24.3641 30.0683 24.3176 29.7922C24.2741 29.512 24.1255 29.2764 23.8715 29.0855C23.6134 28.8914 23.3515 28.8151 23.0859 28.8564C22.8191 28.8905 22.5559 29.0803 22.2961 29.4258L21.6623 30.2688L23.3733 31.5552ZM27.4532 30.7025L25.0463 25.3944L25.5411 24.9059L30.8117 27.3878L30.3168 27.8763L25.8671 25.7368L27.9425 30.2196L27.4532 30.7025ZM27.1215 29.0541L26.8818 28.5443L28.6444 26.8046L29.1511 27.051L27.1215 29.0541ZM31.0104 27.2252L27.832 22.7749L29.1417 21.8396C29.663 21.4673 30.1562 21.2527 30.6212 21.1958C31.0873 21.1316 31.5205 21.2095 31.9207 21.4293C32.3221 21.6418 32.6893 21.9812 33.0223 22.4474C33.3492 22.9051 33.5481 23.3583 33.6189 23.807C33.6939 24.2526 33.6255 24.6855 33.4136 25.1057C33.2059 25.5228 32.8414 25.9175 32.3201 26.2899L31.0104 27.2252ZM31.2266 26.3988L31.9895 25.8539C32.4218 25.5452 32.7152 25.23 32.8696 24.9086C33.021 24.5828 33.0579 24.2492 32.9805 23.9077C32.9 23.562 32.7295 23.2069 32.4692 22.8424C32.2029 22.4695 31.9192 22.1888 31.6183 22.0005C31.3174 21.8122 30.9883 21.7368 30.6311 21.7743C30.2739 21.8118 29.8791 21.9849 29.4468 22.2937L28.6839 22.8386L31.2266 26.3988ZM34.9896 24.416L32.503 19.5453L35.5158 18.0071L35.7609 18.4872L33.3325 19.727L34.1993 21.4248L36.419 20.2916L36.6605 20.7647L34.4409 21.8979L35.329 23.6375L37.7574 22.3977L38.0025 22.8778L34.9896 24.416ZM42.2885 21.3619L41.2732 15.9881L41.9182 15.8663L45.5951 19.6322L44.7818 15.3256L45.4268 15.2038L46.4416 20.5775L45.7967 20.6993L42.1197 16.9334L42.933 21.2401L42.2885 21.3619ZM49.4182 20.551C48.8924 20.5594 48.4268 20.4497 48.0221 20.2218C47.6225 19.9886 47.3072 19.6629 47.0768 19.2446C46.851 18.8211 46.7338 18.3281 46.7248 17.7657C46.7158 17.2085 46.8174 16.7172 47.0291 16.2919C47.2463 15.8613 47.551 15.523 47.9428 15.2771C48.34 15.0311 48.8014 14.9039 49.3275 14.8955C49.8639 14.8869 50.3318 14.9991 50.7314 15.2324C51.1311 15.4656 51.4436 15.794 51.6693 16.2175C51.9002 16.6357 52.0197 17.1234 52.0287 17.6806C52.0377 18.2431 51.9338 18.7396 51.7166 19.1702C51.5049 19.5956 51.2029 19.9311 50.8107 20.177C50.4189 20.4177 49.9545 20.5424 49.4182 20.551ZM49.4088 19.9729C49.8049 19.9666 50.1494 19.8725 50.4436 19.6907C50.7428 19.5036 50.9705 19.2421 51.1264 18.9062C51.2877 18.565 51.3647 18.1601 51.3568 17.6914C51.3494 17.2227 51.2596 16.8231 51.0877 16.4924C50.9209 16.1565 50.685 15.9025 50.3803 15.7302C50.0803 15.558 49.7326 15.475 49.3369 15.4813C48.9463 15.4876 48.6014 15.5817 48.3022 15.7636C48.0084 15.9454 47.7807 16.2069 47.6193 16.5481C47.4635 16.884 47.3889 17.2862 47.3967 17.7549C47.4041 18.2236 47.4912 18.6259 47.658 18.9618C47.8303 19.2924 48.0658 19.5465 48.3658 19.724C48.6705 19.8962 49.0182 19.9792 49.4088 19.9729ZM53.1627 20.626L52.6686 14.9768L53.3604 15.1031L53.6795 19.9262L55.8354 15.5546L56.5576 15.6864L56.9971 20.5474L59.017 16.1352L59.7088 16.2614L57.2209 21.3665L56.483 21.2318L56.0115 16.5477L53.8854 20.7578L53.1627 20.626ZM63.708 23.7445L66.0397 19.4011L64.601 18.6288L64.8561 18.1538L68.3115 20.009L68.0564 20.4839L66.6178 19.7116L64.2861 24.0549L63.708 23.7445ZM67.5998 26.3892C67.1799 26.0727 66.8799 25.7002 66.7006 25.2718C66.5287 24.8422 66.4799 24.3916 66.5549 23.9199C66.6373 23.4472 66.8475 22.9861 67.1857 22.5368C67.5213 22.0916 67.9029 21.7664 68.3314 21.561C68.7674 21.3546 69.2154 21.2748 69.676 21.3216C70.1404 21.3715 70.5826 21.5547 71.0029 21.8712C71.4314 22.1939 71.7318 22.57 71.9037 22.9996C72.0756 23.4291 72.1205 23.8802 72.0385 24.353C71.9635 24.8247 71.7584 25.2831 71.4232 25.7283C71.0846 26.1776 70.6975 26.5054 70.2619 26.7118C69.833 26.9172 69.3889 26.9965 68.9283 26.9497C68.4713 26.8988 68.0283 26.712 67.5998 26.3892ZM67.9479 25.9274C68.2639 26.1656 68.5939 26.3033 68.9373 26.3404C69.2885 26.3765 69.6287 26.31 69.9584 26.1409C70.2951 25.9708 70.6045 25.6985 70.8865 25.3241C71.1686 24.9497 71.3432 24.5791 71.4107 24.2126C71.4854 23.8451 71.4553 23.4997 71.3205 23.1765C71.19 22.8565 70.9666 22.5774 70.6502 22.3392C70.3385 22.1042 70.0084 21.9665 69.6607 21.9262C69.317 21.8891 68.9768 21.9556 68.64 22.1257C68.3104 22.2948 68.0045 22.5666 67.7225 22.941C67.4404 23.3154 67.2623 23.6865 67.1873 24.054C67.1201 24.4205 67.1502 24.7659 67.2775 25.0901C67.4123 25.4133 67.6357 25.6924 67.9479 25.9274ZM72.8455 31.0914L77.2596 27.863L79.2564 30.5934L78.8213 30.9117L77.2119 28.7109L75.6732 29.8363L77.1443 31.8478L76.7154 32.1615L75.2443 30.1499L73.6678 31.3029L75.2775 33.5036L74.8424 33.8219L72.8455 31.0914ZM75.0279 34.0565L78.2486 34.2225L79.8439 31.4659L80.1955 32.1195L78.9127 34.3355L81.4393 34.4313L81.7869 35.0781L78.5869 34.901L76.9744 37.6756L76.6229 37.0219L77.9229 34.788L75.3795 34.7101L75.0279 34.0565ZM77.149 38.0594L82.2811 36.1706L82.8963 37.8422C83.0459 38.2479 83.0994 38.6055 83.058 38.9149C83.0232 39.2276 82.9158 39.4862 82.7361 39.6913C82.558 39.901 82.3248 40.0588 82.0365 40.1651C81.7576 40.2674 81.4803 40.2975 81.2037 40.2549C80.9338 40.2155 80.683 40.0917 80.4506 39.8827C80.2186 39.6741 80.0268 39.3643 79.8756 38.9539L79.4873 37.8981L77.3756 38.6752L77.149 38.0594ZM80.0076 37.7066L80.3936 38.755C80.5447 39.1655 80.7432 39.4256 80.9885 39.535C81.2342 39.6444 81.5061 39.6444 81.8045 39.5346C82.1221 39.4174 82.3342 39.2397 82.4404 39.0007C82.5514 38.76 82.5314 38.4343 82.3807 38.0238L81.9947 36.9753L80.0076 37.7066ZM78.5357 41.9116L83.8764 40.7346L84.6045 44.0381L84.0779 44.1542L83.4912 41.4916L81.6295 41.9018L82.1658 44.3354L81.6471 44.4499L81.1107 42.0159L79.2033 42.4362L79.79 45.0991L79.2639 45.2151L78.5357 41.9116ZM79.36 45.7831L84.8123 45.362L84.9482 47.1221C84.9814 47.5479 84.9354 47.9014 84.8111 48.1827C84.6916 48.4635 84.5174 48.6784 84.2885 48.8264C84.06 48.9749 83.7947 49.0604 83.4936 49.0838C83.2029 49.1061 82.9303 49.0592 82.6756 48.9432C82.4217 48.8323 82.2111 48.6448 82.0447 48.3807C81.8779 48.1166 81.7779 47.7694 81.7447 47.3381L81.6615 46.2635L79.4104 46.4374L79.36 45.7831ZM79.5826 48.6651L81.9279 47.2772L81.9846 48.0092L79.642 49.4362L79.5826 48.6651ZM82.1756 46.2237L82.2576 47.2831C82.2896 47.6983 82.4143 47.9944 82.6318 48.1709C82.8494 48.3526 83.1166 48.4311 83.4334 48.4069C83.7553 48.3819 84.0025 48.2663 84.1744 48.0596C84.3522 47.8577 84.4244 47.5413 84.3912 47.1104L84.31 46.0588L82.1756 46.2237ZM79.6693 50.1893L85.1369 50.2959L85.124 50.9518L79.6564 50.8456L79.6693 50.1893ZM79.6072 51.7764L85.0361 52.4346L84.6291 55.7928L84.0939 55.728L84.4221 53.0209L82.5295 52.7916L82.2299 55.2659L81.7021 55.2018L82.0022 52.728L80.0631 52.4928L79.7354 55.1995L79.2002 55.1346L79.6072 51.7764ZM79.108 55.6698L84.3838 57.11L84.2107 57.7432L79.2154 59.4002L83.4436 60.5541L83.2705 61.1874L77.9947 59.7471L78.1678 59.1139L83.1631 57.4569L78.935 56.303L79.108 55.6698ZM76.7424 62.3854C76.9666 61.9038 77.2678 61.5354 77.6451 61.2803C78.0248 61.0323 78.4502 60.903 78.9205 60.892C79.3955 60.8838 79.8881 60.9983 80.3979 61.2358C80.908 61.4733 81.31 61.7756 81.6045 62.1428C81.9037 62.512 82.0779 62.9206 82.1275 63.369C82.1799 63.8241 82.0939 64.2928 81.8693 64.7741C81.6057 65.3409 81.2564 65.7385 80.8225 65.967C80.3885 66.1956 79.9025 66.2452 79.3654 66.1159L79.6725 65.4573C80.0146 65.5245 80.3315 65.4854 80.6232 65.3401C80.9201 65.1967 81.1607 64.9264 81.3455 64.5299C81.5104 64.176 81.5709 63.8307 81.5264 63.494C81.4869 63.1596 81.3467 62.8498 81.1057 62.5655C80.8697 62.2831 80.5393 62.0428 80.1143 61.8448C79.6893 61.6467 79.2904 61.5471 78.9178 61.5459C78.5494 61.5467 78.2225 61.6385 77.9361 61.8213C77.6545 62.0061 77.4314 62.2756 77.2666 62.6295C77.0818 63.026 77.0252 63.3819 77.0967 63.6967C77.1729 64.0139 77.3447 64.2807 77.6115 64.4971L77.3049 65.1557C76.874 64.8342 76.6068 64.4338 76.5025 63.9545C76.3986 63.4748 76.4783 62.9518 76.7424 62.3854ZM75.6596 64.8698L80.2174 67.8916L78.3479 70.7112L77.8986 70.4131L79.4053 68.1409L77.8166 67.0874L76.4397 69.1643L75.9967 68.8709L77.374 66.7936L75.7459 65.7143L74.2393 67.987L73.79 67.6889L75.6596 64.8698ZM70.7604 71.1803L74.3416 75.3135L72.9951 76.4799C72.6686 76.7631 72.3529 76.9397 72.049 77.0104C71.7443 77.0881 71.4643 77.0792 71.2092 76.9834C70.9498 76.8913 70.7197 76.7288 70.5186 76.4963C70.324 76.2721 70.1979 76.0233 70.14 75.7495C70.0814 75.4831 70.1088 75.2045 70.2217 74.9135C70.335 74.6225 70.5568 74.3338 70.8877 74.0471L71.7377 73.3108L70.2647 71.61L70.7604 71.1803ZM72.101 73.7299L71.2568 74.4616C70.926 74.7479 70.7529 75.0252 70.7373 75.2936C70.7221 75.5624 70.8182 75.8163 71.0264 76.0565C71.2479 76.3124 71.4893 76.4479 71.7502 76.4627C72.0147 76.4819 72.3123 76.3479 72.6432 76.0616L73.4873 75.3299L72.101 73.7299ZM67.6615 73.828L70.6338 78.4182L69.1518 79.378C68.7932 79.61 68.4607 79.7385 68.1541 79.7631C67.8506 79.7924 67.5787 79.742 67.3393 79.6116C67.0998 79.4811 66.8979 79.2893 66.7338 79.0358C66.5752 78.7909 66.4861 78.5288 66.467 78.2499C66.4432 77.9737 66.5072 77.6991 66.66 77.4268C66.8123 77.1542 67.0701 76.9006 67.4326 76.6655L68.3377 76.0795L67.1107 74.1846L67.6615 73.828ZM65.235 75.3991L67.574 76.7975L66.9576 77.1967L64.5857 75.8194L65.235 75.3991ZM68.6182 76.5124L67.726 77.0901C67.3764 77.3167 67.176 77.5674 67.1244 77.8424C67.0689 78.1206 67.1272 78.3928 67.2998 78.6596C67.4756 78.9307 67.6951 79.0924 67.9588 79.1452C68.2209 79.2049 68.5334 79.1174 68.8963 78.8827L69.7814 78.3092L68.6182 76.5124ZM64.1314 76.0795L66.442 81.0362L63.376 82.4655L63.1482 81.9768L65.6197 80.8249L64.8143 79.0971L62.5553 80.1499L62.3311 79.6686L64.5896 78.6155L63.7647 76.8452L61.2932 77.9971L61.0654 77.5088L64.1314 76.0795ZM60.6623 77.6725L62.1252 82.942L61.3877 83.1467L58.5064 79.9819L57.6615 84.1815L56.9162 84.3881L55.4533 79.119L56.0854 78.9432L57.235 83.0835L58.0291 79.1983L58.5033 79.0667L61.1752 81.9733L60.0299 77.8483L60.6623 77.6725ZM54.7092 79.294L55.4916 84.7065L54.842 84.8006L54.06 79.3877L54.7092 79.294ZM51.2029 79.4596C51.5775 79.4463 51.9213 79.51 52.2338 79.6502C52.5408 79.7905 52.7908 80.0112 52.9838 80.312C53.1768 80.6178 53.2818 81.0127 53.299 81.4967L53.4193 84.9479L52.7635 84.9709L52.6428 81.512C52.6303 81.1581 52.5631 80.8709 52.4408 80.6514C52.3131 80.4315 52.1436 80.2733 51.9314 80.1768C51.7197 80.0799 51.4783 80.0362 51.208 80.0456C50.9318 80.0553 50.6943 80.1155 50.4951 80.2268C50.2955 80.3381 50.1424 80.5077 50.0357 80.7354C49.9291 80.9631 49.8822 81.2542 49.8943 81.6081L50.0154 85.067L49.3596 85.0897L49.2389 81.6389C49.2221 81.1545 49.299 80.7534 49.4705 80.4346C49.6416 80.1213 49.8783 79.8834 50.1803 79.7217C50.4822 79.5604 50.8229 79.4729 51.2029 79.4596ZM48.7049 79.6217L47.9475 85.0378L47.1893 84.9315L45.8072 80.8807L43.3592 84.396L42.5932 84.2889L43.351 78.8729L44.0006 78.9635L43.4057 83.219L45.6818 79.9717L46.1693 80.0401L47.4619 83.7706L48.0549 79.5307L48.7049 79.6217ZM38.955 77.5284L36.6435 82.4846L33.6273 81.078L33.8552 80.5893L36.2766 81.7186L37.0889 79.9768L35.0286 79.0159L35.2531 78.5346L37.3135 79.4956L38.3603 77.251L38.955 77.5284ZM35.5611 75.9131L32.612 80.5186L29.7632 78.6944L30.0539 78.2405L32.3501 79.7108L33.378 78.1053L31.2793 76.7616L31.5657 76.3139L33.6645 77.6581L34.7177 76.0131L32.4216 74.5428L32.7123 74.0889L35.5611 75.9131ZM32.496 73.9729L27.4134 76.8256L26.8844 76.3745L28.9059 70.9108L29.4349 71.362L27.6842 75.9784L31.9729 73.5268L32.496 73.9729ZM30.882 74.4448L30.3945 74.7272L28.5104 73.1198L28.7125 72.594L30.882 74.4448ZM28.2482 70.0842L24.5718 73.3682L25.6596 74.5858L25.2576 74.9452L22.6448 72.0202L23.0468 71.6612L24.1346 72.8788L27.811 69.5948L28.2482 70.0842ZM25.5084 66.4166C25.716 66.7291 25.842 67.0549 25.8864 67.3944C25.9279 67.7295 25.8711 68.0581 25.7161 68.3803C25.5568 68.7049 25.2755 69.0014 24.8722 69.2698L21.9966 71.1815L21.6333 70.635L24.5153 68.719C24.8102 68.5229 25.0193 68.3151 25.1423 68.0956C25.2625 67.8717 25.3082 67.6444 25.2796 67.4131C25.251 67.1819 25.1618 66.9538 25.0118 66.7284C24.8589 66.4983 24.6829 66.3276 24.4837 66.2163C24.2845 66.1045 24.0599 66.0631 23.81 66.092C23.5601 66.1206 23.2876 66.2327 22.9927 66.4288L20.1107 68.3452L19.7473 67.7987L22.6229 65.8866C23.0262 65.6186 23.4084 65.4737 23.7696 65.4526C24.1264 65.4342 24.4528 65.5112 24.7487 65.6834C25.0446 65.8557 25.2979 66.1002 25.5084 66.4166ZM23.9907 64.2557L19.0382 66.5752L18.2893 64.9764C18.1082 64.5897 18.0262 64.2424 18.0434 63.9354C18.0559 63.6307 18.143 63.3682 18.3048 63.1487C18.4665 62.9291 18.6842 62.7553 18.9577 62.6272C19.2219 62.5038 19.4935 62.451 19.7726 62.4702C20.0495 62.4842 20.3125 62.585 20.5617 62.7733C20.8109 62.9616 21.0271 63.2514 21.2104 63.6428L21.6677 64.619L23.7124 63.6616L23.9907 64.2557ZM22.7647 61.6381L21.0605 63.7647L20.7491 63.0998L22.4367 60.9377L22.7647 61.6381ZM21.2007 64.8377L20.7501 63.8756C20.5734 63.4983 20.3522 63.2655 20.0865 63.1772C19.8186 63.0838 19.5408 63.1049 19.2531 63.2397C18.9607 63.3764 18.7704 63.5721 18.6823 63.826C18.5873 64.0776 18.6315 64.3991 18.8148 64.7905L19.2622 65.7456L21.2007 64.8377ZM22.2411 60.4526L17.0159 62.0667L16.0176 58.8346L16.5327 58.6752L17.3373 61.2807L19.1587 60.7178L18.4232 58.337L18.9308 58.1799L19.6662 60.5612L21.5324 59.9846L20.7277 57.3795L21.2428 57.2206L22.2411 60.4526ZM20.8851 54.8795C20.9527 55.2749 20.9396 55.6311 20.8459 55.9483C20.7521 56.2655 20.5905 56.5256 20.361 56.7288C20.1315 56.9319 19.8473 57.0624 19.5085 57.1202L19.3927 56.4424C19.6032 56.4065 19.79 56.3245 19.953 56.1959C20.1109 56.0686 20.2279 55.9034 20.3041 55.7002C20.3743 55.4928 20.3857 55.2502 20.3384 54.9729C20.2971 54.7319 20.2236 54.5331 20.1176 54.3768C20.0056 54.2163 19.8729 54.1041 19.7193 54.0405C19.5649 53.9717 19.4004 53.9526 19.2259 53.9823C19.0154 54.0182 18.8539 54.0932 18.7413 54.2077C18.6227 54.3178 18.5355 54.4569 18.4797 54.6249C18.4239 54.7928 18.3827 54.985 18.3562 55.201C18.3237 55.4124 18.2904 55.635 18.2562 55.8678C18.1853 56.3186 18.0591 56.6623 17.8777 56.8995C17.6963 57.1366 17.4336 57.2846 17.0896 57.3432C16.797 57.3932 16.5289 57.3706 16.2854 57.2748C16.0409 57.1737 15.8356 57.0081 15.6694 56.7776C15.4971 56.5428 15.3812 56.251 15.3216 55.9018C15.2628 55.5577 15.2761 55.2491 15.3614 54.9756C15.4459 54.6971 15.5888 54.4666 15.7901 54.2842C15.9863 54.1026 16.2307 53.987 16.5234 53.937L16.6392 54.6147C16.4903 54.6401 16.3505 54.7034 16.22 54.8049C16.0894 54.9065 15.9915 55.0448 15.9262 55.2198C15.855 55.3905 15.8396 55.594 15.88 55.8303C15.9082 56.026 15.9714 56.1948 16.0696 56.3366C16.1618 56.4741 16.2795 56.5756 16.4227 56.6409C16.5652 56.701 16.7288 56.7155 16.9136 56.6838C17.0881 56.6541 17.2232 56.594 17.3187 56.5038C17.4133 56.4081 17.4873 56.2846 17.5406 56.1327C17.5879 55.9768 17.6262 55.7987 17.6553 55.5979C17.6845 55.3975 17.7178 55.1752 17.7553 54.9311C17.7979 54.6541 17.8662 54.4049 17.9603 54.1827C18.0484 53.9561 18.1804 53.7698 18.3562 53.6237C18.5311 53.4721 18.77 53.3706 19.0729 53.319C19.3296 53.2748 19.5853 53.3026 19.84 53.4018C20.0887 53.4967 20.3077 53.6651 20.4971 53.9077C20.6865 54.1502 20.8158 54.4741 20.8851 54.8795Z"
fill="white"
/>
<path
d="M35.6307 60.5843V63.98C35.6307 64.6015 36.1347 65.1054 36.7564 65.1054H63.8846C64.5061 65.1054 65.01 64.6015 65.01 63.98V60.5843H35.6307ZM69.0139 40.4257C68.8155 40.2987 68.5823 40.2366 68.3471 40.2491C68.112 40.2612 67.8866 40.3472 67.7026 40.494L59.5073 47.0503C59.3139 47.205 59.1772 47.419 59.1178 47.6597C59.0585 47.8999 59.0799 48.153 59.1792 48.38C59.3042 48.6655 59.3682 48.9737 59.3678 49.2854C59.3678 50.5347 58.3514 51.5511 57.1026 51.5511C55.8534 51.5511 54.837 50.5347 54.837 49.2854C54.837 48.5507 55.1971 47.8581 55.7999 47.4331C56.0198 47.2776 56.1772 47.0487 56.2428 46.7878C56.3085 46.5265 56.2784 46.2503 56.1581 46.0097L51.3272 36.3484C51.2339 36.1614 51.0901 36.0041 50.9124 35.8942C50.7342 35.7843 50.5296 35.7261 50.3202 35.7261C50.1112 35.7261 49.9065 35.7843 49.7284 35.8942C49.5506 36.0041 49.4069 36.1614 49.3135 36.3484L44.4827 46.0097C44.3624 46.2507 44.3323 46.5265 44.3979 46.7878C44.4635 47.0487 44.621 47.278 44.8409 47.4331C45.4436 47.8581 45.8038 48.5507 45.8038 49.2854C45.8038 50.5347 44.7874 51.5511 43.5382 51.5511C42.2889 51.5511 41.2729 50.5347 41.2729 49.2854C41.2729 48.9714 41.3362 48.6667 41.4616 48.38C41.5608 48.153 41.5823 47.8999 41.5229 47.6597C41.4635 47.419 41.3264 47.205 41.1335 47.0503L32.9383 40.494C32.7543 40.3472 32.5289 40.2612 32.2937 40.2491C32.0585 40.2366 31.8253 40.2987 31.6271 40.4257C31.4289 40.553 31.2755 40.739 31.1887 40.9581C31.1019 41.1769 31.0858 41.4175 31.143 41.646L35.3146 58.3331H65.326L69.4979 41.646C69.5549 41.4175 69.5389 41.1769 69.4522 40.9581C69.3655 40.739 69.212 40.553 69.0139 40.4257Z"
fill="#000B17"
/>
<path
d="M63.9788 60.0145V63.0195C63.9788 63.4254 63.6495 63.7547 63.2436 63.7547H36.1155C35.7097 63.7547 35.3805 63.4254 35.3804 63.0195V60.0145H63.9788ZM49.6796 35.1562C49.8159 35.1562 49.9503 35.1943 50.0663 35.2661C50.1823 35.3379 50.276 35.4405 50.337 35.5625L55.1674 45.2238C55.2464 45.3813 55.2663 45.5613 55.2233 45.7316C55.1803 45.9023 55.0776 46.052 54.9339 46.1531C54.2276 46.6512 53.8057 47.4625 53.8057 48.325C53.8057 49.7898 54.9967 50.9812 56.4616 50.9812C57.8807 50.9812 59.0432 49.8633 59.1143 48.4617L59.1178 48.325C59.1182 48.0051 59.0604 47.6883 58.9475 47.3895L58.896 47.2629C58.8315 47.1148 58.8174 46.9496 58.8561 46.7926C58.8948 46.6355 58.9842 46.4957 59.1104 46.3949L67.3061 39.8387C67.426 39.7426 67.5733 39.6867 67.7268 39.6785C67.8803 39.6707 68.0327 39.7109 68.162 39.7941C68.2913 39.8773 68.3917 39.9988 68.4487 40.1418C68.5053 40.2848 68.5155 40.4418 68.4784 40.591L64.3803 56.9816H34.9787L30.8814 40.591C30.8441 40.4418 30.8544 40.2848 30.9111 40.1418C30.9678 39.9988 31.0678 39.8773 31.1972 39.7941C31.3266 39.7109 31.4789 39.6707 31.6325 39.6785C31.7861 39.6867 31.9335 39.7426 32.0536 39.8387L40.2483 46.3949C40.3745 46.4961 40.4639 46.6355 40.503 46.7926C40.5417 46.9496 40.5276 47.1152 40.4628 47.2633C40.3159 47.5992 40.2417 47.9574 40.2417 48.325C40.2417 49.7898 41.4327 50.9812 42.8975 50.9812C44.3624 50.9809 45.5534 49.7898 45.5534 48.325C45.5534 47.4625 45.1315 46.6512 44.4253 46.1531C44.2819 46.052 44.1788 45.9027 44.1358 45.732C44.0928 45.5617 44.1131 45.3813 44.1917 45.2238L49.0221 35.5625C49.0831 35.4405 49.1768 35.3379 49.2928 35.2661C49.4092 35.1944 49.5428 35.1563 49.6796 35.1562Z"
fill="#F9F9FF"
stroke="#000B17"
/>
</svg>