<svg xmlns="http://www.w3.org/2000/svg" viewBox="0 0 110.92 147.17"><defs><style>.cls-1{fill:#0049f8;}</style></defs><g id="Layer_2" data-name="Layer 2"><g id="Layer_1-2" data-name="Layer 1"><path class="cls-1" d="M26.56,15H23.27c-3.19,0-6.61.63-9.39-1.37A7.21,7.21,0,0,1,11.5,4.45a7.12,7.12,0,0,1,3.15-3.31C15.47.76,16.3.42,17.13.07L17.85,0h76l.72.05a29.61,29.61,0,0,1,3.19,1.47c1.56.93,2.08,2.57,2.94,4a15.5,15.5,0,0,1-.2,3.73c-.69,3.35-4.09,5.6-7.48,5.62q-4.79,0-9.55,0c-.63,0-.89.12-.89.83,0,4.54,0,9.09,0,13.63a1.06,1.06,0,0,0,.74,1.13,37,37,0,0,1,8.16,5.64A58.75,58.75,0,0,1,99,43.79,50.43,50.43,0,0,1,107.68,59a59.26,59.26,0,0,1,2.8,12.21l0,.27c.16,1.53.42,3.06.44,4.59,0,2.5-.11,5-.11,7.51q0,17.25,0,34.49c0,5.39-.2,10.77.11,16.15v.72s-.06.06-.06.09a1.66,1.66,0,0,0,.06.21v.71s-.07.07-.06.1a1.55,1.55,0,0,0,0,.23v.65a11.35,11.35,0,0,0-.07,2.91,6.84,6.84,0,0,1-1.17,4.43,7.75,7.75,0,0,1-7.32,2.84c-1.93-.21-3.85-.08-5.77-.36-2.53-.36-5.12-.34-7.67-.54-3.84-.31-7.65-.75-11.46-1.3s-7.77-1.28-11.61-2.16a135,135,0,0,1-17.78-5.1,107.76,107.76,0,0,1-10.51-4.39C30,129.45,23,124.94,17.08,118.79a56,56,0,0,1-7.87-10,93.42,93.42,0,0,1-6.13-12.1A45.29,45.29,0,0,1,0,78,60.34,60.34,0,0,1,2.84,61.12,54.14,54.14,0,0,1,8.63,49a56.59,56.59,0,0,1,11.21-12.8A59.3,59.3,0,0,1,28.1,30.4a.51.51,0,0,0,.46-.27c.66-.59.46-1.4.46-2.12,0-3.93,0-7.86,0-11.79,0-.36.16-.77-.22-1C28.7,15,28.49,15,28.3,15Zm-3.82,92.17c0,.18.08.25.22.31l.24.2.29.26a10.71,10.71,0,0,0,3,2.82,33.86,33.86,0,0,0,8.92,6.12,37,37,0,0,0,5.26,2.25A39.1,39.1,0,0,0,50,121.4a41.19,41.19,0,0,0,6.93.3,16.72,16.72,0,0,0,4-.46c.51-.14,1.09.13,1.52-.3a41.16,41.16,0,0,0,12.25-4,48.18,48.18,0,0,0,10.83-7.48,41.23,41.23,0,0,0,8.57-11.19,27.53,27.53,0,0,0,2.81-7c1.62-3.57,1.94-7.4,2.24-11.23,1.55-9.6-2.45-25.24-11.74-30.06A17.29,17.29,0,0,0,76.26,48.5,16.81,16.81,0,0,0,66,54.73c-3,3.62-4,7.83-3.95,12.48.13,6.45,0,12.9.05,19.35,0,3.52-.1,7,.13,10.54l-.08.06a1.19,1.19,0,0,0,.08.16l-.08.38L62,99.22a5.91,5.91,0,0,1-4,5.38,6.88,6.88,0,0,1-8.45-2.69c-.91-1.44-.68-3-.82-4.49,0-.33.06-.67.06-1,0-8.57,0-17.13,0-25.7a35.12,35.12,0,0,0-.07-5.33,16.13,16.13,0,0,0-2.05-7.78c-3.56-6.46-9.07-9.73-16.52-9.33a15.39,15.39,0,0,0-10.46,4.52,27.89,27.89,0,0,0-7.12,14.09c-.33.57-.17,1.23-.33,1.82-2.33,8.38-1,18.23,2.59,26.08A42.67,42.67,0,0,0,22,106.15l.44.5Zm22-83.31a4.06,4.06,0,0,1,.64-.19c.79-.15,1.6-.22,2.4-.31,6-.67,12.41-.94,18.26.64,2.15.58,2.18.48,2.06-1.72,0-1.78,0-3.56,0-5.34a4.2,4.2,0,0,1,.05-.51c.29-1.28-.17-1.64-1.5-1.63-7.36.08-14.71.07-22.06,0-1,0-1.21.28-1.18,1.22,0,2.25,0,4.51-.06,6.76,0,.83-.16,1.19.67,1.2A2.52,2.52,0,0,0,44.69,23.84Z"/><path class="cls-1" d="M84.72,68.92c0,4.29.06,8.58.13,12.88a17.16,17.16,0,0,0,0,3.51c-.44.81-.41,1.78-.94,2.56A6.81,6.81,0,0,1,76.64,91c-2.39-.41-5.11-3.54-5-5.75.18-5,0-9.92,0-14.88a9.58,9.58,0,0,1,.09-2.15,6.76,6.76,0,0,1,7.08-5.19A6.39,6.39,0,0,1,84.72,68.92Z"/><path class="cls-1" d="M24.51,86c0-5.67,0-11.33,0-17a4.69,4.69,0,0,1,.62-2c.18-.42.5-.78.45-1.29a.78.78,0,0,0,.62-.37c2.08-2.61,5.27-2.57,8-1.36s3.42,3.77,3.52,6.38c.16,4.32,0,8.65.06,13a16.17,16.17,0,0,1-.25,2.5A6.34,6.34,0,0,1,27.25,89.7,10.36,10.36,0,0,1,24.51,86Z"/><rect class="cls-1" x="24.48" y="63.04" width="14.1" height="28.12" rx="4.87"/><rect class="cls-1" x="71.19" y="63.04" width="14.1" height="28.12" rx="4.87"/></g></g></svg>