<svg
width="40"
height="40"
viewBox="0 0 40 40"
fill="none"
xmlns="http://www.w3.org/2000/svg"
>
<g clip-path="url(#clip0_2792_670)">
<path
d="M10.8772 30.8672C12.9119 30.8672 14.5617 32.5286 14.5617 34.5771C14.5615 36.6254 12.9118 38.2861 10.8772 38.2861C8.84254 38.286 7.19278 36.6253 7.19259 34.5771C7.19259 32.5287 8.84243 30.8673 10.8772 30.8672ZM22.7736 30.7178C24.8084 30.7178 26.4582 32.3782 26.4582 34.4268C26.4582 36.4752 24.8084 38.1357 22.7736 38.1357C20.7389 38.1357 19.0891 36.4751 19.0891 34.4268C19.0891 32.3783 20.739 30.7179 22.7736 30.7178ZM38.9426 1.71387C39.6644 1.71399 40.1743 2.42708 39.9436 3.11719L38.6721 6.91895C38.527 7.35205 38.124 7.64341 37.6711 7.64355H35.9611C35.5081 7.64355 35.1053 7.93594 34.9602 8.36914L28.0383 29.0869C27.8948 29.5202 27.4908 29.8115 27.0363 29.8115H6.53341C6.05325 29.8115 5.63339 29.4851 5.51095 29.0186L0.0353622 8.09375C-0.141051 7.4189 0.36488 6.75899 1.05782 6.75879H20.4123C21.1357 6.75879 21.6454 7.4738 21.4143 8.16406L20.1389 11.9648C19.9938 12.3967 19.591 12.6885 19.1379 12.6885H8.70333C8.0102 12.6885 7.50436 13.3484 7.68087 14.0234L7.7922 14.4521C7.91451 14.9203 8.33454 15.2459 8.81466 15.2461H15.0949C15.8168 15.2461 16.327 15.9592 16.0959 16.6494L14.8244 20.4502C14.6794 20.8835 14.278 21.1757 13.8234 21.1758H10.9231C10.2301 21.176 9.72413 21.8358 9.9006 22.5107L10.052 23.0889C10.1744 23.557 10.5942 23.8818 11.0744 23.8818H22.8049C23.2579 23.8818 23.6608 23.5904 23.8059 23.1572L30.7277 2.43945H30.7268C30.8703 2.00623 31.2733 1.71387 31.7277 1.71387H38.9426Z"
fill="#01B7FF"
/>
</g>
<defs>
<clipPath id="clip0_2792_670">
<rect width="40" height="40" fill="white" />
</clipPath>
</defs>
</svg>