<svg width="30" height="30" viewBox="0 0 30 30" fill="none" xmlns="http://www.w3.org/2000/svg">
<path d="M26 9.44444V11.6667V23.3333C26 24.2535 25.2543 24.9995 24.3343 25H24.3333L5.88652 25C5.63878 25.0011 5.39334 24.9521 5.16472 24.8557C4.93609 24.7593 4.72894 24.6176 4.55552 24.4389C4.37861 24.2637 4.23829 24.0545 4.14287 23.8235C4.04745 23.5926 3.99888 23.3447 4.00002 23.0944V6.66667C3.99973 6.44771 4.04221 6.23086 4.12503 6.02852C4.20785 5.82617 4.32937 5.64233 4.48265 5.4875C4.63592 5.33268 4.81793 5.20993 5.01825 5.12627C5.21857 5.04262 5.43326 4.99971 5.65002 5H11.898C12.2249 4.99994 12.5477 5.07374 12.8427 5.21601C13.1377 5.35828 13.3975 5.56541 13.603 5.82222L14.681 7.16111C14.8357 7.35375 15.0311 7.50907 15.2528 7.61576C15.4745 7.72244 15.7169 7.77779 15.9625 7.77778H24.35C24.5668 7.77748 24.7815 7.82039 24.9818 7.90405C25.1821 7.9877 25.3641 8.11046 25.5174 8.26528C25.6706 8.4201 25.7922 8.60395 25.875 8.80629C25.9578 9.00863 26.0003 9.22549 26 9.44444Z" />
</svg>