<svg
width="38"
height="40"
viewBox="0 0 38 40"
fill="none"
xmlns="http://www.w3.org/2000/svg"
>
<path
fill-rule="evenodd"
clip-rule="evenodd"
d="M1.49376e-05 15.8359L1.49376e-05 34.14C-0.00150469 34.7395 0.112935 35.3335 0.336796 35.8879C0.560657 36.4424 0.889553 36.9465 1.3047 37.3714C1.71985 37.7964 2.21311 38.1338 2.75631 38.3646C3.29952 38.5953 3.88202 38.7147 4.47055 38.7161H33.5281C34.1167 38.715 34.6993 38.5957 35.2426 38.3651C35.786 38.1344 36.2793 37.797 36.6945 37.372C37.1097 36.947 37.4386 36.4428 37.6624 35.8882C37.8861 35.3336 38.0004 34.7396 37.9986 34.14V15.8359L1.49376e-05 15.8359Z"
fill="#1551AE"
/>
<path
fill-rule="evenodd"
clip-rule="evenodd"
d="M0.379886 13.4658L0.379886 31.682C0.378381 32.8856 0.840607 34.0408 1.66529 34.8944C2.48997 35.748 3.60986 36.2304 4.77958 36.236H33.3777C34.5476 36.2308 35.6677 35.7486 36.4925 34.8949C37.3172 34.0412 37.7793 32.8857 37.7774 31.682V20.297V13.4658L0.379886 13.4658Z"
fill="#E5E5E5"
/>
<g filter="url(#filter0_d_2438_6942)">
<path
fill-rule="evenodd"
clip-rule="evenodd"
d="M25.4912 32.4199V40.0002L28.4994 38.6626L31.5077 40.0002V32.4199H25.4912Z"
fill="#FF1F59"
/>
</g>
<path
fill-rule="evenodd"
clip-rule="evenodd"
d="M0.112308 10.9521L0.112308 29.1683C0.110788 30.372 0.577719 31.5272 1.41079 32.3808C2.24386 33.2344 3.37513 33.7168 4.55672 33.7223H33.4447C34.6264 33.7172 35.7579 33.2349 36.591 32.3812C37.4241 31.5275 37.8909 30.3721 37.889 29.1683V17.7831V10.9521L0.112308 10.9521Z"
fill="#BBBBBB"
/>
<path
fill-rule="evenodd"
clip-rule="evenodd"
d="M0.112308 9.40918L0.112308 27.6253C0.110788 28.829 0.577719 29.9842 1.41079 30.8378C2.24386 31.6914 3.37513 32.1738 4.55672 32.1793H33.4447C34.6264 32.1742 35.7579 31.6919 36.591 30.8382C37.4241 29.9845 37.8909 28.8291 37.889 27.6253V16.2403V9.40918L0.112308 9.40918Z"
fill="#E5E5E5"
/>
<path
fill-rule="evenodd"
clip-rule="evenodd"
d="M4.47743 1.14705e-08C2.00957 1.14705e-08 0.00878906 2.52295 0.00878906 5.03785L0.00878906 33.6713C0.00878906 36.1886 2.48472 38.7091 4.95241 38.7091H7.04708V36.4321H5.59538C2.98519 36.4321 1.76892 34.9022 1.76892 33.0166C1.76892 31.1311 3.09095 29.5149 5.7013 29.5149H33.7253C36.1952 29.5149 38.0001 27.1937 38.0001 24.6764L37.9928 22.7701V13.662V4.554C37.9931 3.95604 37.8778 3.36388 37.6533 2.81136C37.4289 2.25883 37.0998 1.75677 36.6848 1.33386C36.2698 0.910947 35.7771 0.575472 35.2348 0.346603C34.6925 0.117735 34.1112 -4.24376e-05 33.5242 1.14705e-08L4.47743 1.14705e-08Z"
fill="#1551AE"
/>
<path
fill-rule="evenodd"
clip-rule="evenodd"
d="M5.22559 0L5.22559 29.5149H33.6296C36.045 29.5149 37.9994 27.484 37.9994 24.9741V13.6222V4.54077C37.9994 2.03314 36.045 0 33.6296 0L5.22559 0Z"
fill="#1059CA"
/>
<path
fill-rule="evenodd"
clip-rule="evenodd"
d="M26.851 22.3395H23.3701C23.4308 22.3395 20.2628 24.0248 20.2628 24.0572C20.2628 24.0044 17.2519 22.3395 17.1552 22.3395H13.6745C12.7859 22.3395 12.0586 21.6713 12.0586 20.8546V6.91309L28.467 6.91309V20.8538C28.467 21.6705 27.7398 22.3395 26.851 22.3395ZM25.8763 17.0739C25.7304 16.8798 25.5402 16.7248 25.3222 16.6223C25.0799 16.5067 24.8284 16.4121 24.5704 16.3396C24.2972 16.2611 24.0239 16.1892 23.7506 16.124C23.4773 16.0587 23.2269 15.9867 22.9993 15.908C22.7952 15.8429 22.6063 15.7359 22.4442 15.5937C22.377 15.536 22.323 15.4639 22.286 15.3826C22.2491 15.3012 22.2302 15.2127 22.2307 15.1231C22.2309 14.9965 22.2627 14.872 22.3232 14.7614C22.3837 14.6508 22.4709 14.5578 22.5765 14.491C22.8473 14.3149 23.165 14.2286 23.4859 14.2439C23.9925 14.2439 24.3768 14.3537 24.6388 14.5732C24.9008 14.7928 25.0318 15.01 25.0318 15.2248V15.4447C25.0306 15.4582 25.0324 15.472 25.0373 15.4847C25.0421 15.4974 25.0498 15.5088 25.0597 15.518C25.0697 15.5272 25.0815 15.5339 25.0944 15.5376C25.1073 15.5413 25.1209 15.5419 25.1341 15.5393H25.6724C25.6856 15.5419 25.6992 15.5413 25.7121 15.5376C25.725 15.5339 25.7369 15.5272 25.7468 15.518C25.7568 15.5088 25.7645 15.4974 25.7694 15.4847C25.7743 15.472 25.7762 15.4583 25.775 15.4447V13.7333C25.7761 13.7197 25.7742 13.706 25.7693 13.6934C25.7644 13.6807 25.7566 13.6694 25.7467 13.6603C25.7367 13.6512 25.7248 13.6445 25.7119 13.6409C25.6991 13.6373 25.6855 13.6368 25.6724 13.6394H25.1942C25.1806 13.6363 25.1665 13.6363 25.153 13.6396C25.1394 13.6429 25.1268 13.6494 25.1161 13.6584C25.1053 13.6675 25.0968 13.679 25.0912 13.692C25.0855 13.705 25.0828 13.7191 25.0834 13.7333L25.1004 14.2199C24.7415 13.8067 24.1779 13.6001 23.4096 13.6001C22.8003 13.6001 22.3148 13.7439 21.953 14.0315C21.8074 14.1391 21.6852 14.2759 21.5938 14.4336C21.5023 14.5913 21.4437 14.7665 21.4215 14.9482C21.42 14.9482 21.4191 14.9482 21.4177 14.9482H20.7589V10.4895H21.4164C21.4295 10.4922 21.4431 10.4917 21.456 10.488C21.4689 10.4844 21.4809 10.4777 21.4908 10.4686C21.5008 10.4595 21.5085 10.4481 21.5134 10.4354C21.5183 10.4226 21.5202 10.409 21.519 10.3954V9.99537C21.5202 9.98179 21.5182 9.96811 21.5133 9.95542C21.5084 9.94273 21.5007 9.93137 21.4907 9.92225C21.4808 9.91312 21.4689 9.90649 21.456 9.90286C21.4431 9.89923 21.4295 9.89871 21.4164 9.90134H20.1097C20.0223 9.89501 19.9352 9.91756 19.8614 9.96565C19.7876 10.0137 19.731 10.0848 19.7 10.1683L18.4192 13.0091C18.3169 13.2501 18.1859 13.5746 18.0263 13.9826H17.9919L17.5907 12.9936L16.3184 10.1683C16.2887 10.0857 16.2335 10.0151 16.1612 9.96697C16.0889 9.91887 16.0032 9.89586 15.917 9.90134H14.6018C14.5882 9.89818 14.5741 9.89826 14.5605 9.90157C14.5469 9.90488 14.5343 9.91133 14.5236 9.92043C14.5128 9.92953 14.5043 9.94102 14.4987 9.95402C14.493 9.96702 14.4904 9.98117 14.491 9.99537V10.3954C14.4904 10.4096 14.493 10.4237 14.4986 10.4368C14.5043 10.4498 14.5128 10.4613 14.5235 10.4704C14.5342 10.4795 14.5469 10.486 14.5605 10.4893C14.574 10.4926 14.5882 10.4927 14.6018 10.4895H15.251V14.9477H14.6018C14.5882 14.9446 14.574 14.9448 14.5604 14.9481C14.5469 14.9515 14.5342 14.958 14.5235 14.9671C14.5128 14.9763 14.5043 14.9878 14.4986 15.0008C14.493 15.0139 14.4904 15.028 14.491 15.0423V15.4426C14.4904 15.4568 14.493 15.4709 14.4987 15.4839C14.5043 15.4969 14.5128 15.5084 14.5236 15.5175C14.5343 15.5266 14.5469 15.5331 14.5605 15.5364C14.5741 15.5397 14.5882 15.5397 14.6018 15.5366H16.5663C16.5799 15.5397 16.5941 15.5396 16.6076 15.5363C16.6212 15.533 16.6338 15.5265 16.6445 15.5174C16.6552 15.5083 16.6638 15.4968 16.6694 15.4839C16.6751 15.4709 16.6777 15.4567 16.6772 15.4426V15.0423C16.6777 15.028 16.6751 15.0139 16.6695 15.0009C16.6638 14.9879 16.6553 14.9763 16.6446 14.9672C16.6339 14.9581 16.6213 14.9516 16.6077 14.9482C16.5941 14.9448 16.58 14.9447 16.5663 14.9477H15.9943V11.0392H16.0114L17.6339 14.744C17.669 14.8149 17.7227 14.8744 17.7891 14.916C17.8554 14.9576 17.9318 14.9796 18.0097 14.9796C18.0875 14.9796 18.1639 14.9576 18.2302 14.916C18.2966 14.8744 18.3503 14.8149 18.3854 14.744L20.0082 11.0392H20.0166V14.9477H19.4447C19.4316 14.9452 19.418 14.9459 19.4051 14.9496C19.3922 14.9533 19.3804 14.96 19.3704 14.9691C19.3605 14.9782 19.3528 14.9896 19.3479 15.0023C19.343 15.015 19.341 15.0287 19.3421 15.0423V15.4426C19.341 15.4561 19.3429 15.4698 19.3479 15.4825C19.3528 15.4951 19.3605 15.5065 19.3704 15.5156C19.3804 15.5247 19.3923 15.5314 19.4052 15.535C19.4181 15.5386 19.4316 15.5392 19.4447 15.5366H21.4175C21.4359 15.5368 21.4542 15.5332 21.4712 15.5259C21.5051 15.6354 21.5552 15.739 21.6197 15.8332C21.7589 16.0339 21.9454 16.1959 22.162 16.3043C22.3996 16.4225 22.6468 16.5197 22.9009 16.5946C23.1711 16.6754 23.4414 16.7472 23.7118 16.8101C23.9822 16.873 24.2285 16.9411 24.4507 17.0144C24.649 17.0745 24.8334 17.1746 24.993 17.3088C25.0583 17.3619 25.111 17.4294 25.1471 17.5061C25.1833 17.5828 25.2021 17.6669 25.202 17.752C25.2058 17.8914 25.1736 18.0294 25.1084 18.1521C25.0432 18.2748 24.9474 18.3778 24.8307 18.4508C24.519 18.6349 24.1613 18.7221 23.8016 18.7018C23.5596 18.7043 23.3189 18.6661 23.0891 18.5889C22.9004 18.5291 22.7229 18.4375 22.5638 18.3181C22.4184 18.1988 22.2867 18.0631 22.1713 17.9136C22.0666 17.8058 21.9978 17.6672 21.9747 17.5175V17.3528C21.9764 17.3387 21.975 17.3245 21.9704 17.3111C21.9658 17.2977 21.9583 17.2856 21.9483 17.2757C21.9384 17.2658 21.9263 17.2584 21.9131 17.254C21.8998 17.2497 21.8858 17.2486 21.8721 17.2507H21.3337C21.3195 17.248 21.3049 17.2486 21.2909 17.2526C21.277 17.2566 21.2642 17.2638 21.2534 17.2737C21.2427 17.2836 21.2343 17.2959 21.229 17.3096C21.2238 17.3233 21.2217 17.3381 21.2229 17.3528V19.1893C21.2223 19.2036 21.2249 19.2177 21.2306 19.2307C21.2362 19.2438 21.2447 19.2553 21.2554 19.2644C21.2661 19.2735 21.2788 19.28 21.2924 19.2834C21.306 19.2867 21.3201 19.2868 21.3337 19.2837H21.812C21.8252 19.2863 21.8388 19.2857 21.8517 19.282C21.8645 19.2783 21.8764 19.2717 21.8864 19.2625C21.8963 19.2534 21.904 19.242 21.9089 19.2293C21.9138 19.2166 21.9157 19.2029 21.9145 19.1893L21.9061 18.4202C22.1041 18.6838 22.358 18.8983 22.649 19.0477C23.0504 19.2555 23.4973 19.3555 23.9473 19.338C24.659 19.338 25.194 19.189 25.5524 18.8908C25.7231 18.757 25.8607 18.5844 25.9541 18.3867C26.0476 18.189 26.0944 17.9718 26.0907 17.7525C26.096 17.5079 26.0205 17.2687 25.8763 17.0731V17.0739Z"
fill="#E5E5E5"
/>
<defs>
<filter
id="filter0_d_2438_6942"
x="25.4912"
y="32.4199"
width="6.0166"
height="10.6136"
filterUnits="userSpaceOnUse"
color-interpolation-filters="sRGB"
>
<feFlood flood-opacity="0" result="BackgroundImageFix" />
<feColorMatrix
in="SourceAlpha"
type="matrix"
values="0 0 0 0 0 0 0 0 0 0 0 0 0 0 0 0 0 0 127 0"
result="hardAlpha"
/>
<feOffset dy="3.03355" />
<feColorMatrix
type="matrix"
values="0 0 0 0 0.0627451 0 0 0 0 0.0901961 0 0 0 0 0.145098 0 0 0 0.15 0"
/>
<feBlend
mode="normal"
in2="BackgroundImageFix"
result="effect1_dropShadow_2438_6942"
/>
<feBlend
mode="normal"
in="SourceGraphic"
in2="effect1_dropShadow_2438_6942"
result="shape"
/>
</filter>
</defs>
</svg>