<svg
width="32"
height="32"
viewBox="0 0 32 32"
fill="none"
xmlns="http://www.w3.org/2000/svg"
>
<title>Media Library Icon</title>
<path
d="M18.6088 6.31989H17.843C17.5152 6.32163 17.1936 6.23135 16.9146 6.05933C16.6356 5.8873 16.4105 5.64044 16.2648 5.3468C16.0085 4.83114 15.6128 4.39758 15.1227 4.09526C14.6326 3.79293 14.0676 3.63393 13.4917 3.63626H11.1281C10.5522 3.63384 9.98718 3.79281 9.49704 4.09515C9.0069 4.39748 8.61127 4.83109 8.355 5.3468C8.20926 5.6403 7.98409 5.88702 7.70511 6.05891C7.42612 6.2308 7.1045 6.32097 6.77682 6.31917H6.01173C5.18932 6.31897 4.40051 6.64539 3.81871 7.22664C3.23691 7.80789 2.90976 8.5964 2.90918 9.4188V16.6363C2.90995 17.4585 3.23719 18.2469 3.81897 18.828C4.40074 19.409 5.18945 19.7354 6.01173 19.7352H18.6081C19.4302 19.7354 20.2188 19.4091 20.8006 18.8282C21.3823 18.2473 21.7097 17.4591 21.7106 16.637V9.41808C21.7101 8.5958 21.383 7.8074 20.8014 7.22617C20.2197 6.64494 19.4311 6.31844 18.6088 6.31844V6.31989ZM12.3099 16.3817C11.2421 16.3815 10.2181 15.9576 9.46266 15.2029C8.70723 14.4483 8.28217 13.4248 8.28082 12.357C8.28197 11.2891 8.70695 10.2653 9.46241 9.51055C10.2179 8.75578 11.242 8.33172 12.3099 8.33153C13.3778 8.33172 14.402 8.75578 15.1574 9.51055C15.9129 10.2653 16.3378 11.2891 16.339 12.357C16.3376 13.4248 15.9126 14.4483 15.1572 15.2029C14.4017 15.9576 13.3777 16.3815 12.3099 16.3817ZM19.4685 21.4799C19.4685 21.373 19.426 21.2706 19.3504 21.195C19.2749 21.1194 19.1724 21.077 19.0655 21.077H17.4074C17.3006 21.077 17.1983 21.1193 17.1227 21.1947C17.0472 21.2701 17.0046 21.3724 17.0045 21.4792V22.1424C17.0045 22.3766 16.795 22.5541 16.5608 22.5541C16.1792 22.5539 15.8012 22.6289 15.4486 22.7747C15.0959 22.9206 14.7754 23.1345 14.5054 23.4043C14.2354 23.674 14.0212 23.9942 13.875 24.3468C13.7287 24.6993 13.6534 25.0772 13.6532 25.4588C13.6536 26.2294 13.96 26.9684 14.5052 27.5131C15.0503 28.0578 15.7894 28.3637 16.5601 28.3635C16.9417 28.3637 17.3197 28.2887 17.6723 28.1429C18.025 27.997 18.3455 27.7831 18.6155 27.5134C18.8855 27.2436 19.0997 26.9234 19.2459 26.5708C19.3922 26.2183 19.4675 25.8405 19.4677 25.4588L19.4685 21.4799ZM29.091 13.4297C29.0908 13.323 29.0483 13.2207 28.9727 13.1453C28.8972 13.0699 28.7948 13.0275 28.6881 13.0275H23.5797C23.473 13.0275 23.3706 13.0699 23.2951 13.1453C23.2195 13.2207 23.177 13.323 23.1768 13.4297V15.973C23.1768 16.1948 23.3572 16.3752 23.5797 16.3752H26.2692C26.4895 16.3752 26.6692 16.5526 26.6721 16.773L26.7361 22.0392C26.739 22.2944 26.5055 22.4864 26.2503 22.4813L26.1834 22.4799C25.8017 22.4797 25.4238 22.5547 25.0711 22.7006C24.7184 22.8464 24.398 23.0603 24.128 23.3301C23.858 23.5998 23.6437 23.9201 23.4975 24.2726C23.3513 24.6251 23.2759 25.003 23.2757 25.3846C23.2759 25.7663 23.3513 26.1441 23.4975 26.4967C23.6437 26.8492 23.858 27.1694 24.128 27.4392C24.398 27.7089 24.7184 27.9228 25.0711 28.0687C25.4238 28.2146 25.8017 28.2895 26.1834 28.2893C26.5772 28.2895 26.9671 28.2097 27.3291 28.0546C27.6912 27.8995 28.0179 27.6724 28.2895 27.3871C28.5611 27.1018 28.7719 26.7643 28.9091 26.3951C29.0462 26.0258 29.1069 25.6326 29.0874 25.2392L29.0888 25.237L29.091 25.2363V13.4297Z"
fill="#27769B"
/>
</svg>