<svg
width="200"
height="200"
viewBox="0 0 200 200"
fill="none"
xmlns="http://www.w3.org/2000/svg"
>
<g clip-path="url(#clip0_6204_16281)">
<path
opacity="0.5"
d="M69.3479 156.03C69.3479 157.516 68.1459 158.72 66.6599 158.72H47.9759C46.5739 158.72 45.4059 157.642 45.2959 156.244L44.6159 147.724C44.4939 146.162 45.7279 144.822 47.2959 144.822H66.6579C68.1439 144.822 69.3459 146.026 69.3459 147.512V156.03H69.3479ZM86.5619 135.62C86.5619 137.104 85.3599 138.308 83.8739 138.308H46.4999C45.0979 138.308 43.9339 137.232 43.8199 135.832L43.1439 127.314C43.0179 125.748 44.2539 124.412 45.8219 124.412H83.8759C85.3619 124.412 86.5639 125.616 86.5639 127.1V135.62H86.5619ZM165.828 96.9939H131.498C130.366 96.9939 129.292 96.6879 128.362 96.1459C126.95 95.3279 125.876 93.9599 125.454 92.2939L120.22 71.6919C119.516 68.9279 117.03 66.9919 114.178 66.9919H57.0959C58.6619 70.9579 55.4639 77.3959 48.1339 78.7019C47.1859 78.8699 46.2079 78.8979 45.2419 78.8059C42.8339 78.5739 38.1859 77.6639 36.2479 74.0819C34.9219 71.6279 35.1399 69.0519 36.1939 66.9919H32.0619C28.4279 66.9919 25.5659 70.0839 25.8439 73.7059L32.9999 166.736C33.2499 169.984 35.9559 172.494 39.2139 172.494H158.024C161.172 172.494 163.824 170.148 164.21 167.026L165.228 158.808C162.148 160.556 158.1 161.778 152.836 162.228C118.344 165.178 107.648 131.978 110.782 122.388C113.918 112.796 125.538 117.04 132.362 124.05C139.186 131.058 149.842 143.15 158.038 142.166C166.238 141.184 168.194 134.808 168.194 134.808L169.632 123.2L172.008 104.002C172.468 100.282 169.568 97.0019 165.822 97.0019L165.828 96.9939Z"
fill="#808F9F"
/>
<g opacity="0.35">
<path
d="M69.3476 156.03C69.3476 157.516 68.1456 158.72 66.6596 158.72H47.9756C46.5736 158.72 45.4056 157.642 45.2956 156.244L44.6156 147.724C44.4936 146.162 45.7276 144.822 47.2956 144.822H66.6576C68.1436 144.822 69.3456 146.026 69.3456 147.512V156.03H69.3476ZM86.5616 135.62C86.5616 137.104 85.3596 138.308 83.8736 138.308H46.4996C45.0976 138.308 43.9336 137.232 43.8196 135.832L43.1436 127.314C43.0176 125.748 44.2536 124.412 45.8216 124.412H83.8756C85.3616 124.412 86.5636 125.616 86.5636 127.1V135.62H86.5616Z"
fill="#808F9F"
/>
</g>
<path
d="M66.66 159.12H47.976C46.376 159.12 45.024 157.87 44.898 156.276L44.218 147.756C44.15 146.898 44.446 146.046 45.03 145.414C45.612 144.784 46.438 144.422 47.296 144.422H66.658C68.36 144.422 69.746 145.808 69.746 147.512V156.03C69.746 157.734 68.362 159.12 66.658 159.12H66.66ZM47.298 145.224C46.654 145.224 46.058 145.486 45.618 145.958C45.18 146.432 44.966 147.05 45.016 147.694L45.696 156.212C45.79 157.394 46.792 158.32 47.978 158.32H66.662C67.924 158.32 68.95 157.292 68.95 156.03V147.512C68.95 146.25 67.924 145.222 66.662 145.222H47.3L47.298 145.224ZM83.874 138.708H46.5C44.902 138.708 43.55 137.46 43.422 135.864L42.746 127.346C42.678 126.49 42.972 125.636 43.554 125.006C44.136 124.376 44.962 124.014 45.822 124.014H83.876C85.578 124.014 86.964 125.398 86.964 127.102V135.622C86.964 137.324 85.58 138.71 83.876 138.71L83.874 138.708ZM45.82 124.814C45.174 124.814 44.578 125.076 44.14 125.55C43.702 126.024 43.49 126.64 43.54 127.284L44.216 135.802C44.312 136.984 45.314 137.91 46.498 137.91H83.872C85.134 137.91 86.16 136.884 86.16 135.622V127.102C86.16 125.84 85.134 124.814 83.872 124.814H45.818H45.82Z"
fill="#808F9F"
/>
<path
d="M158.026 172.892H39.2163C35.7723 172.892 32.8683 170.2 32.6023 166.766L25.4463 73.736C25.3043 71.9 25.9403 70.07 27.1923 68.72C28.4443 67.368 30.2183 66.592 32.0623 66.592H36.8483L36.5503 67.174C35.4423 69.336 35.4603 71.784 36.5983 73.89C38.4263 77.27 42.8223 78.17 45.2783 78.406C46.2423 78.498 47.1783 78.464 48.0623 78.306C51.5723 77.682 54.4723 75.734 56.0203 72.964C57.1223 70.992 57.3843 68.814 56.7243 67.138L56.5083 66.592H114.178C117.214 66.592 119.858 68.648 120.608 71.594L125.842 92.196C126.226 93.706 127.218 95.02 128.564 95.802C129.456 96.322 130.47 96.596 131.498 96.596H165.828C167.728 96.596 169.54 97.412 170.798 98.836C172.056 100.26 172.644 102.158 172.412 104.046L168.594 134.888L168.584 134.922C168.564 134.988 166.454 141.558 158.092 142.56C150.466 143.472 141.01 133.62 134.104 126.424C133.4 125.69 132.722 124.986 132.08 124.326C127.128 119.238 120.618 116.394 116.25 117.408C113.798 117.978 112.086 119.694 111.166 122.51C109.646 127.16 111.552 138.668 119.088 148.178C124.686 155.242 135.08 163.346 152.804 161.828C157.722 161.408 161.836 160.274 165.032 158.46L165.724 158.068L164.608 167.076C164.198 170.394 161.368 172.896 158.024 172.896L158.026 172.892ZM32.0623 67.39C30.4183 67.39 28.8963 68.054 27.7783 69.26C26.6623 70.466 26.1163 72.032 26.2423 73.672L33.3983 166.702C33.6303 169.724 36.1863 172.09 39.2143 172.09H158.024C160.964 172.09 163.454 169.89 163.814 166.972L164.738 159.524C161.548 161.178 157.562 162.218 152.874 162.62C151.384 162.748 149.942 162.808 148.552 162.808C133.074 162.808 123.71 155.292 118.462 148.67C114.094 143.158 111.982 137.578 110.98 133.868C109.742 129.288 109.528 124.946 110.408 122.256C111.408 119.198 113.366 117.252 116.072 116.624C121.472 115.37 128.454 119.446 132.656 123.764C133.3 124.424 133.978 125.13 134.684 125.866C141.474 132.94 150.772 142.626 157.998 141.76C165.564 140.854 167.652 135.174 167.81 134.71L171.62 103.94C171.826 102.28 171.308 100.61 170.202 99.358C169.096 98.106 167.502 97.388 165.832 97.388H131.502C130.332 97.388 129.178 97.076 128.166 96.486C126.636 95.598 125.508 94.104 125.07 92.386L119.836 71.784C119.178 69.194 116.852 67.386 114.182 67.386H57.6563C58.1603 69.19 57.8263 71.374 56.7243 73.35C55.0603 76.33 51.9563 78.422 48.2083 79.09C47.2523 79.26 46.2443 79.296 45.2083 79.198C42.5923 78.946 37.9063 77.972 35.9003 74.266C34.7363 72.112 34.6243 69.638 35.5723 67.386H32.0683L32.0623 67.39Z"
fill="#808F9F"
/>
<path
opacity="0.35"
d="M128.362 96.146C126.95 95.3279 125.876 93.96 125.454 92.2939L120.22 71.6919C119.516 68.9279 117.03 66.9919 114.178 66.9919H57.3643C58.7543 59.6119 61.0443 52.2619 64.4323 46.3339C64.4323 46.3339 63.2023 29.2839 67.7943 30.0219C72.3843 30.7579 75.9903 38.1659 75.9903 38.1659C75.9903 38.1659 82.7103 34.2839 91.8923 35.4319C101.074 36.5779 104.598 38.1659 104.598 38.1659C104.598 38.1659 109.024 27.2699 113.122 29.9979C117.22 32.7259 116.73 45.9239 116.73 45.9239C116.73 45.9239 129.238 76.3319 128.364 96.1479L128.362 96.146Z"
fill="#808F9F"
/>
<path
d="M128.732 96.8241L128.16 96.4921C126.63 95.6041 125.502 94.1101 125.064 92.3921L119.83 71.7901C119.172 69.2001 116.846 67.3921 114.176 67.3921H56.8799L56.9699 66.9181C58.4919 58.8381 60.9299 51.6921 64.0239 46.2401C63.9279 44.8101 63.2199 32.8161 66.1119 30.1661C66.6179 29.7021 67.2039 29.5221 67.8579 29.6261C72.0459 30.2981 75.3459 36.0701 76.1619 37.6181C77.7079 36.8201 83.8399 34.0201 91.9439 35.0341C99.5279 35.9801 103.254 37.2161 104.386 37.6461C105.058 36.0941 107.774 30.2501 110.874 29.2941C111.744 29.0261 112.576 29.1501 113.346 29.6621C117.45 32.3941 117.174 44.5941 117.134 45.8501C117.846 47.6081 129.61 76.9861 128.764 96.1621L128.734 96.8221L128.732 96.8241ZM57.8459 66.5901H114.176C117.212 66.5901 119.856 68.6461 120.606 71.5921L125.84 92.1941C126.168 93.4801 126.936 94.6241 127.986 95.4181C128.524 75.9041 116.48 46.3741 116.358 46.0741L116.324 45.9941L116.328 45.9081C116.332 45.7781 116.764 32.9021 112.898 30.3301C112.33 29.9521 111.744 29.8641 111.104 30.0601C107.958 31.0281 104.994 38.2421 104.966 38.3161L104.81 38.7001L104.432 38.5301C104.398 38.5141 100.83 36.9521 91.8399 35.8301C82.9099 34.7121 76.2539 38.4741 76.1879 38.5121L75.8159 38.7261L75.6279 38.3401C75.5919 38.2681 72.0579 31.1121 67.7279 30.4161C67.3239 30.3521 66.9719 30.4621 66.6499 30.7561C64.3859 32.8301 64.5679 42.6821 64.8279 46.3041L64.8359 46.4261L64.7759 46.5321C61.7579 51.8141 59.3639 58.7421 57.8439 66.5921L57.8459 66.5901Z"
fill="#808F9F"
/>
<path
opacity="0.35"
d="M48.1318 78.7C47.1838 78.868 46.2058 78.896 45.2398 78.804C42.8318 78.572 38.1838 77.662 36.2458 74.08C34.9198 71.626 35.1378 69.05 36.1918 66.99C37.2638 64.902 39.1938 63.346 41.2558 62.99C45.3478 62.284 54.0078 62.09 56.6398 66.116C56.8178 66.39 56.9697 66.684 57.0917 66.99C58.6577 70.956 55.4598 77.394 48.1298 78.7H48.1318Z"
fill="#808F9F"
/>
<path
d="M46.326 79.2559C45.956 79.2559 45.582 79.2379 45.202 79.2019C42.586 78.9499 37.9 77.9759 35.894 74.2699C34.628 71.9279 34.606 69.2079 35.836 66.8079C36.978 64.5839 39.028 62.9699 41.188 62.5959C44.596 62.0079 54.072 61.4559 56.976 65.8959C57.168 66.1919 57.332 66.5079 57.466 66.8399C58.216 68.7399 57.936 71.1719 56.718 73.3519C55.054 76.3319 51.95 78.4239 48.202 79.0919C47.596 79.1999 46.968 79.2539 46.326 79.2539V79.2559ZM46.172 62.9919C44.402 62.9919 42.7 63.1479 41.324 63.3839C39.408 63.7159 37.578 65.1679 36.548 67.1719C35.44 69.3339 35.458 71.7819 36.598 73.8879C38.426 77.2679 42.822 78.1679 45.278 78.4039C46.242 78.4959 47.178 78.4619 48.062 78.3039C51.572 77.6799 54.472 75.7319 56.02 72.9619C57.122 70.9899 57.384 68.8119 56.724 67.1359C56.612 66.8539 56.47 66.5839 56.308 66.3319C54.658 63.8079 50.238 62.9899 46.174 62.9899L46.172 62.9919Z"
fill="#808F9F"
/>
<path
d="M43.3682 78.9301C43.1742 78.9301 43.0042 78.7881 42.9742 78.5901L41.7782 70.7841C41.7442 70.5661 41.8942 70.3621 42.1122 70.3281C42.3302 70.2961 42.5342 70.4441 42.5682 70.6621L43.7642 78.4681C43.7982 78.6861 43.6482 78.8901 43.4302 78.9241C43.4102 78.9281 43.3902 78.9281 43.3682 78.9281V78.9301ZM49.1062 78.8901C48.8922 78.8901 48.7142 78.7201 48.7062 78.5061L48.4142 70.7401C48.4062 70.5201 48.5782 70.3341 48.7982 70.3261C49.0142 70.3181 49.2042 70.4901 49.2122 70.7101L49.5042 78.4761C49.5122 78.6961 49.3402 78.8821 49.1202 78.8901C49.1142 78.8901 49.1102 78.8901 49.1042 78.8901H49.1062ZM53.6142 76.7321C53.4122 76.7321 53.2382 76.5781 53.2162 76.3721C53.0302 74.5561 52.5942 70.3101 52.5942 70.1261C52.5942 69.9061 52.7742 69.7261 52.9942 69.7261C53.2142 69.7261 53.3902 69.9021 53.3942 70.1181C53.4062 70.3521 53.7682 73.9341 54.0122 76.2901C54.0342 76.5101 53.8742 76.7061 53.6562 76.7281C53.6422 76.7281 53.6282 76.7301 53.6142 76.7301V76.7321Z"
fill="#808F9F"
/>
<path
d="M78.7343 60.1061C80.2056 60.1061 81.3983 58.7477 81.3983 57.0721C81.3983 55.3965 80.2056 54.0381 78.7343 54.0381C77.263 54.0381 76.0703 55.3965 76.0703 57.0721C76.0703 58.7477 77.263 60.1061 78.7343 60.1061Z"
fill="#808F9F"
/>
<path
d="M101.076 60.1061C102.547 60.1061 103.74 58.7477 103.74 57.0721C103.74 55.3965 102.547 54.0381 101.076 54.0381C99.6048 54.0381 98.4121 55.3965 98.4121 57.0721C98.4121 58.7477 99.6048 60.1061 101.076 60.1061Z"
fill="#808F9F"
/>
<path
d="M67.9538 44.6941C67.9538 44.6941 67.3798 35.2661 69.0198 36.3321C70.6598 37.3981 73.0358 39.8561 73.0358 39.8561L67.9538 44.6921V44.6941ZM107.138 40.4701C107.138 40.4701 111.81 34.9381 112.384 35.5941C112.958 36.2501 112.876 43.8741 112.876 43.8741L107.138 40.4721V40.4701Z"
fill="#808F9F"
/>
<path
opacity="0.35"
d="M165.232 158.804C162.152 160.552 158.104 161.774 152.84 162.224C118.348 165.174 107.652 131.974 110.786 122.384C113.922 112.792 125.542 117.036 132.366 124.046C139.19 131.054 149.846 143.146 158.042 142.162C166.242 141.18 168.198 134.804 168.198 134.804L169.636 123.196C169.636 123.196 182.34 149.104 165.23 158.808L165.232 158.804Z"
fill="#808F9F"
/>
<path
d="M148.552 162.81C133.074 162.81 123.71 155.294 118.462 148.672C114.094 143.16 111.982 137.58 110.98 133.87C109.742 129.29 109.528 124.948 110.408 122.258C111.408 119.2 113.366 117.252 116.072 116.626C121.472 115.372 128.454 119.448 132.656 123.766C133.3 124.426 133.978 125.132 134.684 125.868C141.474 132.942 150.772 142.628 157.998 141.762C165.564 140.856 167.652 135.176 167.81 134.712L169.408 121.81L170 123.016C170.032 123.082 173.216 129.64 174.25 137.306C174.86 141.83 174.616 145.856 173.522 149.268C172.146 153.562 169.424 156.888 165.43 159.152C162.132 161.024 157.908 162.192 152.876 162.622C151.386 162.75 149.944 162.81 148.554 162.81H148.552ZM118.13 117.202C117.47 117.202 116.84 117.268 116.25 117.406C113.798 117.976 112.086 119.692 111.166 122.508C109.646 127.158 111.552 138.666 119.088 148.176C124.222 154.656 133.396 162.01 148.562 162.01C149.928 162.01 151.34 161.95 152.806 161.826C157.724 161.406 161.838 160.272 165.034 158.458C171.97 154.524 174.804 147.45 173.458 137.432C172.712 131.888 170.822 126.928 169.86 124.666L168.594 134.888L168.584 134.922C168.564 134.988 166.452 141.558 158.092 142.56C150.466 143.476 141.01 133.62 134.104 126.424C133.4 125.69 132.722 124.986 132.08 124.326C127.796 119.926 122.35 117.204 118.13 117.204V117.202Z"
fill="#808F9F"
/>
<path
opacity="0.5"
d="M144.388 27.6881L159.56 29.8941C168.888 31.2501 175.35 39.9121 173.994 49.2401C172.638 58.5681 163.976 65.0301 154.648 63.6741L144.138 62.1461L138.564 66.7561C137.894 67.3101 136.886 66.8141 136.916 65.9441L137.09 60.9421C129.074 58.5821 123.802 50.6301 125.04 42.1201C126.396 32.7921 135.058 26.3301 144.386 27.6861L144.388 27.6881Z"
fill="#808F9F"
/>
<path
d="M137.928 67.3901C137.716 67.3901 137.504 67.3421 137.302 67.2421C136.798 66.9941 136.498 66.4921 136.516 65.9301L136.68 61.2361C132.812 60.0221 129.476 57.4801 127.26 54.0561C124.966 50.5081 124.036 46.2501 124.646 42.0641C125.318 37.4461 127.746 33.3681 131.486 30.5781C135.226 27.7881 139.828 26.6201 144.446 27.2921L159.618 29.4981C164.236 30.1701 168.314 32.5981 171.104 36.3381C173.894 40.0781 175.06 44.6801 174.39 49.2981C173.718 53.9161 171.29 57.9941 167.55 60.7841C163.81 63.5741 159.208 64.7421 154.59 64.0701L144.256 62.5681L138.82 67.0661C138.56 67.2821 138.246 67.3921 137.928 67.3921V67.3901ZM141.896 27.9061C138.33 27.9061 134.874 29.0461 131.964 31.2181C128.396 33.8801 126.078 37.7721 125.438 42.1781C124.252 50.3321 129.31 58.2341 137.204 60.5581L137.502 60.6461L137.318 65.9581C137.31 66.2041 137.436 66.4161 137.656 66.5241C137.876 66.6321 138.122 66.6041 138.312 66.4481L144.022 61.7241L154.708 63.2781C159.112 63.9181 163.506 62.8061 167.074 60.1441C170.642 57.4821 172.96 53.5901 173.6 49.1841C174.24 44.7781 173.128 40.3861 170.466 36.8181C167.804 33.2501 163.912 30.9321 159.506 30.2901L144.334 28.0841C143.52 27.9661 142.708 27.9081 141.9 27.9081L141.896 27.9061Z"
fill="#808F9F"
/>
<path
d="M142.562 42.4521L141.986 46.4121C141.554 49.3881 141.838 51.7541 142.84 53.5101C143.844 55.2661 145.532 56.3161 147.906 56.6621C150.252 57.0041 152.158 56.4901 153.624 55.1241C155.092 53.7581 156.048 51.6341 156.498 48.7501L157.074 44.7901C157.512 41.7841 157.22 39.4121 156.2 37.6761C155.18 35.9381 153.496 34.8981 151.152 34.5561C148.806 34.2141 146.902 34.7261 145.436 36.0881C143.97 37.4501 143.012 39.5721 142.564 42.4541L142.562 42.4521ZM146.89 42.6781C147.15 40.8941 147.582 39.6281 148.188 38.8861C148.794 38.1421 149.614 37.8481 150.65 37.9981C151.686 38.1481 152.34 38.6381 152.706 39.4821C153.072 40.3261 153.148 41.5741 152.94 43.2261L152.178 48.4621C151.922 50.2181 151.494 51.4881 150.892 52.2721C150.29 53.0541 149.462 53.3701 148.406 53.2161C147.362 53.0641 146.668 52.5461 146.324 51.6601C145.98 50.7741 145.92 49.4861 146.146 47.7961L146.89 42.6761V42.6781Z"
fill="#808F9F"
/>
<path
opacity="0.25"
d="M29.2841 118.42L26.4881 82.0701C23.2241 82.9041 20.3081 84.6061 17.9981 86.9141C14.6501 90.2641 12.5781 94.8921 12.5781 100.002C12.5781 109.614 19.9081 117.514 29.2841 118.42ZM31.0861 44.4801H43.9101C51.2361 44.4801 57.5641 48.7361 60.5641 54.9101C61.6501 51.8541 62.9321 48.9541 64.4301 46.3341C64.4301 46.3341 63.2001 29.2841 67.7921 30.0221C72.3821 30.7581 75.9881 38.1661 75.9881 38.1661C75.9881 38.1661 82.7081 34.2841 91.8901 35.4321C101.072 36.5781 104.596 38.1661 104.596 38.1661C104.596 38.1661 109.022 27.2701 113.12 29.9981C117.218 32.7261 116.728 45.9241 116.728 45.9241C116.728 45.9241 117.94 48.8701 119.582 53.5261C120.372 52.2021 121.32 50.9841 122.402 49.9001C123.238 49.0641 124.154 48.3081 125.136 47.6441C124.812 45.8681 124.764 44.0101 125.04 42.1221C126.396 32.7941 135.058 26.3321 144.386 27.6881L159.558 29.8941C167.026 30.9801 172.658 36.7501 173.91 43.7941C177.012 42.9261 179.786 41.2701 182 39.0581C185.348 35.7081 187.42 31.0821 187.42 25.9721C187.42 15.7501 179.134 7.46411 168.912 7.46411H31.0861C25.9741 7.46411 21.3481 9.53611 17.9981 12.8841C14.6501 16.2341 12.5781 20.8621 12.5781 25.9721C12.5781 36.1921 20.8641 44.4781 31.0861 44.4781V44.4801ZM168.914 81.4941H135.492C132.348 81.4941 129.39 80.7101 126.796 79.3281C127.916 85.1701 128.588 91.0141 128.362 96.1481C129.292 96.6901 130.366 96.9961 131.498 96.9961H165.828C169.574 96.9961 172.474 100.276 172.014 103.996L170.224 118.462C174.814 118.142 178.942 116.148 182.002 113.088C185.35 109.738 187.422 105.112 187.422 100.002C187.422 89.7801 179.136 81.4941 168.914 81.4941ZM169.434 155.528C168.29 156.748 166.906 157.854 165.232 158.804L164.214 167.022C163.828 170.146 161.176 172.49 158.028 172.49H39.2161C35.9581 172.49 33.2521 169.98 33.0021 166.732L32.1401 155.518H31.0881C25.9761 155.518 21.3501 157.59 18.0001 160.938C14.6521 164.288 12.5801 168.916 12.5801 174.026C12.5801 184.246 20.8661 192.532 31.0881 192.532H168.916C174.028 192.532 178.654 190.46 182.004 187.112C185.352 183.762 187.424 179.136 187.424 174.026C187.424 163.978 179.418 155.8 169.436 155.526L169.434 155.528Z"
fill="#808F9F"
/>
<path
d="M39.8637 48.0481C38.0177 48.0481 36.5157 46.5461 36.5157 44.7001C36.5157 42.8541 38.0177 41.3521 39.8637 41.3521C41.7097 41.3521 43.2117 42.8541 43.2117 44.7001C43.2117 46.5461 41.7097 48.0481 39.8637 48.0481ZM39.8637 42.1501C38.4577 42.1501 37.3157 43.2941 37.3157 44.6981C37.3157 46.1021 38.4597 47.2461 39.8637 47.2461C41.2677 47.2461 42.4117 46.1021 42.4117 44.6981C42.4117 43.2941 41.2677 42.1501 39.8637 42.1501ZM151.286 80.7861C150.09 80.7861 149.118 79.8141 149.118 78.6181C149.118 77.4221 150.09 76.4501 151.286 76.4501C152.482 76.4501 153.454 77.4221 153.454 78.6181C153.454 79.8141 152.482 80.7861 151.286 80.7861ZM151.286 77.2521C150.532 77.2521 149.918 77.8661 149.918 78.6201C149.918 79.3741 150.532 79.9881 151.286 79.9881C152.04 79.9881 152.654 79.3741 152.654 78.6201C152.654 77.8661 152.04 77.2521 151.286 77.2521ZM22.5037 138.708C21.1057 138.708 19.9697 137.57 19.9697 136.174C19.9697 134.778 21.1077 133.64 22.5037 133.64C23.8997 133.64 25.0377 134.778 25.0377 136.174C25.0377 137.57 23.8997 138.708 22.5037 138.708ZM22.5037 134.438C21.5477 134.438 20.7697 135.216 20.7697 136.172C20.7697 137.128 21.5477 137.906 22.5037 137.906C23.4597 137.906 24.2377 137.128 24.2377 136.172C24.2377 135.216 23.4597 134.438 22.5037 134.438ZM88.9717 185.672C87.4217 185.672 86.1617 184.412 86.1617 182.862C86.1617 181.312 87.4217 180.052 88.9717 180.052C90.5217 180.052 91.7817 181.312 91.7817 182.862C91.7817 184.412 90.5217 185.672 88.9717 185.672ZM88.9717 180.852C87.8637 180.852 86.9617 181.754 86.9617 182.862C86.9617 183.97 87.8637 184.872 88.9717 184.872C90.0797 184.872 90.9817 183.97 90.9817 182.862C90.9817 181.754 90.0797 180.852 88.9717 180.852Z"
fill="#808F9F"
/>
</g>
<defs>
<clipPath id="clip0_6204_16281">
<rect width="200" height="200" fill="white" />
</clipPath>
</defs>
</svg>